<svg width="189" height="40" viewBox="0 0 189 40" fill="none" xmlns="http://www.w3.org/2000/svg">
<path d="M93.916 32.5664V13.3252H100.65V16.2114L100.234 20.22H101.645L105.044 13.3252H111.939L107.289 22.5931L112.644 32.5664H105.429L101.645 25.351H100.234L100.65 29.3595V32.5664H93.916Z" fill="white"/>
<path d="M157.444 10.599H168.508L169.5 7H158.436L157.444 10.599Z" fill="white"/>
<path d="M189 32.0855V26.1848H188.551C187.482 26.976 186.242 27.3714 184.831 27.3714C182.266 27.3714 181.303 25.5114 181.303 22.9459C181.303 20.3804 182.266 18.5846 184.831 18.5846C186.264 18.5846 187.514 18.9479 188.583 19.6749H189V13.8063C187.696 13.1008 185.985 12.748 183.869 12.748C178.097 12.748 174.505 16.6925 174.505 22.9459C174.505 29.1993 178.097 33.1437 183.869 33.1437C185.686 33.1437 187.397 32.791 189 32.0855Z" fill="white"/>
<path d="M154.783 32.5664H160.876L165.654 23.491H166.007L165.687 29.3595V32.5664H172.421V13.3252H166.328L161.55 22.4006H161.197L161.518 16.5321V13.3252H154.783V32.5664Z" fill="white"/>
<path d="M153.051 27.5963C151.64 27.5963 151.833 26.955 151.833 25.7043V20.4129C151.833 15.4423 149.748 12.8447 143.174 12.8447C140.459 12.8447 138.396 13.219 136.985 13.9671L136.792 19.1302H136.953C138.471 18.382 140.224 18.0078 142.212 18.0078C144.2 18.0078 145.258 18.8736 145.258 20.3167V20.894H142.084C137.754 20.894 135.478 23.3953 135.478 26.955C135.478 30.5146 137.754 33.048 141.122 33.048C143.302 33.048 144.895 32.0218 145.9 29.9694H146.092C146.648 31.8935 148.155 32.8556 150.614 32.8556C151.619 32.8556 152.613 32.7594 153.596 32.567V27.5963H153.051ZM145.258 26.8267C144.938 27.4469 144.425 27.7567 143.719 27.7567C142.597 27.7567 142.052 26.987 142.052 26.1212C142.052 25.2553 142.661 24.4536 144.136 24.4536H145.258V26.8267Z" fill="white"/>
<path d="M129.833 19.4179L128.614 19.2576V18.7445L129.833 18.52C131.629 17.7183 132.879 16.0186 132.879 13.6776C132.879 9.6049 129.961 6.91113 124.926 6.91113H114.729V32.5661H125.824C130.987 32.5661 133.809 29.6158 133.809 25.2544C133.809 22.3041 132.238 20.2517 129.833 19.4179ZM121.623 12.5232H122.906C124.926 12.5232 126.017 13.4531 126.017 14.8C126.017 16.1469 124.926 17.2052 122.906 17.2052H121.623V12.5232ZM123.612 26.9541H121.623L121.655 22.0155H123.644C125.632 22.0155 126.658 23.1058 126.658 24.5169C126.658 25.9279 125.632 26.9541 123.612 26.9541Z" fill="white"/>
<path d="M82.4362 12.748C76.5035 12.748 73.04 16.6925 73.04 22.9459C73.04 29.1993 76.5035 33.1437 82.4362 33.1437C88.3689 33.1437 91.8323 29.1993 91.8323 22.9459C91.8323 16.6925 88.3689 12.748 82.4362 12.748ZM82.4362 27.3714C80.1914 27.3714 79.8386 25.5114 79.8386 22.9459C79.8386 20.3804 80.1914 18.5204 82.4362 18.5204C84.681 18.5204 85.0337 20.3804 85.0337 22.9459C85.0337 25.5114 84.681 27.3714 82.4362 27.3714Z" fill="white"/>
<path d="M69.0309 26.1524V6.91113H51.1686L50.9762 13.9021C50.7838 20.5403 49.95 24.8375 48.5711 26.1524H46.7432V38.8836H53.7983V32.534H64.862V38.8836H71.9171V26.1524H69.0309ZM61.9117 26.1203H56.011C56.941 24.2924 57.4541 21.5345 57.5182 19.1293L57.6786 13.3249H61.9117V26.1203Z" fill="white"/>
<path d="M29.5125 0H13.6584C10.72 0 8.33789 2.38208 8.33789 5.32052V25.5956C8.33789 28.5341 10.72 30.9162 13.6584 30.9162H29.5125C32.451 30.9162 34.8331 28.5341 34.8331 25.5956V5.32052C34.8331 2.38208 32.451 0 29.5125 0Z" fill="#212121"/>
<path d="M29.4989 0H13.6447C10.7063 0 8.32422 2.38208 8.32422 5.32052V25.5956C8.32422 28.5341 10.7063 30.9162 13.6447 30.9162H29.4989C32.4373 30.9162 34.8194 28.5341 34.8194 25.5956V5.32052C34.8194 2.38208 32.4373 0 29.4989 0Z" fill="url(#paint0_linear_129_1124)"/>
<path d="M25.4544 25.8213L30.9256 25.8213C31.1474 25.8213 31.3271 25.6415 31.3271 25.4198L31.3271 25.0013C31.3271 24.7795 31.1474 24.5998 30.9256 24.5998L25.4544 24.5998C25.2327 24.5998 25.0529 24.7795 25.0529 25.0013L25.0529 25.4198C25.0529 25.6415 25.2327 25.8213 25.4544 25.8213Z" fill="#232325"/>
<path d="M25.3909 17.3467L30.8622 17.3467C31.0839 17.3467 31.2637 17.1669 31.2637 16.9452L31.2637 16.5267C31.2637 16.3049 31.0839 16.1252 30.8622 16.1252L25.3909 16.1252C25.1692 16.1252 24.9894 16.3049 24.9894 16.5267L24.9894 16.9452C24.9894 17.1669 25.1692 17.3467 25.3909 17.3467Z" fill="#232325"/>
<path d="M10.9453 17.3467L13.9989 17.3467C14.2206 17.3467 14.4004 17.1669 14.4004 16.9452L14.4004 16.5267C14.4004 16.3049 14.2206 16.1252 13.9989 16.1252L10.9453 16.1252C10.7236 16.1252 10.5438 16.3049 10.5438 16.5267L10.5438 16.9452C10.5438 17.1669 10.7236 17.3467 10.9453 17.3467Z" fill="#232325"/>
<path d="M10.9737 25.8213L18.3524 25.8213C18.5741 25.8213 18.7539 25.6415 18.7539 25.4198L18.7539 25.0013C18.7539 24.7795 18.5741 24.5998 18.3524 24.5998L10.9737 24.5998C10.752 24.5998 10.5722 24.7795 10.5722 25.0013L10.5722 25.4198C10.5722 25.6415 10.752 25.8213 10.9737 25.8213Z" fill="#232325"/>
<path d="M18.4698 22.9971L25.8485 22.9971C26.0702 22.9971 26.25 22.8173 26.25 22.5956L26.25 22.1771C26.25 21.9553 26.0702 21.7756 25.8485 21.7756L18.4698 21.7756C18.2481 21.7756 18.0683 21.9553 18.0683 22.1771L18.0683 22.5956C18.0683 22.8173 18.2481 22.9971 18.4698 22.9971Z" fill="#232325"/>
<path d="M27.8721 22.9971L30.9256 22.9971C31.1474 22.9971 31.3271 22.8173 31.3271 22.5956L31.3271 22.1771C31.3271 21.9553 31.1474 21.7756 30.9256 21.7756L27.8721 21.7756C27.6503 21.7756 27.4706 21.9553 27.4706 22.1771L27.4706 22.5956C27.4706 22.8173 27.6503 22.9971 27.8721 22.9971Z" fill="#232325"/>
<path d="M16.0267 22.9971L16.4452 22.9971C16.6669 22.9971 16.8467 22.8173 16.8467 22.5956L16.8467 22.1771C16.8467 21.9553 16.6669 21.7756 16.4452 21.7756L16.0267 21.7756C15.8049 21.7756 15.6252 21.9553 15.6252 22.1771L15.6252 22.5956C15.6252 22.8173 15.8049 22.9971 16.0267 22.9971Z" fill="#232325"/>
<path d="M10.9733 22.9971L14.0018 22.9971C14.2236 22.9971 14.4033 22.8173 14.4033 22.5956L14.4033 22.1771C14.4033 21.9553 14.2236 21.7756 14.0018 21.7756L10.9733 21.7756C10.7515 21.7756 10.5718 21.9553 10.5718 22.1771L10.5718 22.5956C10.5718 22.8173 10.7515 22.9971 10.9733 22.9971Z" fill="#232325"/>
<path d="M16.4128 18.9512L10.9415 18.9512C10.7198 18.9512 10.54 19.1309 10.54 19.3527L10.54 19.7712C10.54 19.9929 10.7198 20.1727 10.9415 20.1727L16.4128 20.1727C16.6345 20.1727 16.8143 19.9929 16.8143 19.7712L16.8143 19.3527C16.8143 19.1309 16.6345 18.9512 16.4128 18.9512Z" fill="#232325"/>
<path d="M21.4912 18.9512L18.4376 18.9512C18.2159 18.9512 18.0361 19.1309 18.0361 19.3527L18.0361 19.7712C18.0361 19.9929 18.2159 20.1727 18.4376 20.1727L21.4912 20.1727C21.713 20.1727 21.8927 19.9929 21.8927 19.7712L21.8927 19.3527C21.8927 19.1309 21.713 18.9512 21.4912 18.9512Z" fill="#232325"/>
<path d="M30.8935 18.9512L23.5148 18.9512C23.293 18.9512 23.1133 19.1309 23.1133 19.3527L23.1133 19.7712C23.1133 19.9929 23.293 20.1727 23.5148 20.1727L30.8935 20.1727C31.1152 20.1727 31.295 19.9929 31.295 19.7712L31.295 19.3527C31.295 19.1309 31.1152 18.9512 30.8935 18.9512Z" fill="#232325"/>
<path d="M16.0108 17.3467L23.3895 17.3467C23.6113 17.3467 23.791 17.1669 23.791 16.9452L23.791 16.5267C23.791 16.3049 23.6113 16.1252 23.3895 16.1252L16.0108 16.1252C15.7891 16.1252 15.6093 16.3049 15.6093 16.5267L15.6093 16.9452C15.6093 17.1669 15.7891 17.3467 16.0108 17.3467Z" fill="#232325"/>
<path d="M20.3516 25.8213L23.4051 25.8213C23.6269 25.8213 23.8066 25.6415 23.8066 25.4198L23.8066 25.0013C23.8066 24.7795 23.6269 24.5998 23.4051 24.5998L20.3516 24.5998C20.1298 24.5998 19.9501 24.7795 19.9501 25.0013L19.9501 25.4198C19.9501 25.6415 20.1298 25.8213 20.3516 25.8213Z" fill="#232325"/>
<path d="M30.428 14.5225L30.8465 14.5225C31.0683 14.5225 31.248 14.3427 31.248 14.121L31.248 13.7025C31.248 13.4807 31.0683 13.301 30.8465 13.301L30.428 13.301C30.2063 13.301 30.0266 13.4807 30.0266 13.7025L30.0265 14.121C30.0265 14.3427 30.2063 14.5225 30.428 14.5225Z" fill="#232325"/>
<path d="M25.3746 14.5225L28.4032 14.5225C28.6249 14.5225 28.8047 14.3427 28.8047 14.121L28.8047 13.7025C28.8047 13.4807 28.6249 13.301 28.4032 13.301L25.3746 13.301C25.1529 13.301 24.9731 13.4807 24.9731 13.7025L24.9731 14.121C24.9731 14.3427 25.1529 14.5225 25.3746 14.5225Z" fill="#232325"/>
<path d="M22.9964 14.5225L23.4149 14.5225C23.6366 14.5225 23.8164 14.3427 23.8164 14.121L23.8164 13.7025C23.8164 13.4807 23.6366 13.301 23.4149 13.301L22.9964 13.301C22.7747 13.301 22.5949 13.4807 22.5949 13.7025L22.5949 14.121C22.5949 14.3427 22.7747 14.5225 22.9964 14.5225Z" fill="#232325"/>
<path d="M10.9578 14.5225L20.9715 14.5225C21.1933 14.5225 21.373 14.3427 21.373 14.121L21.373 13.7025C21.373 13.4807 21.1933 13.301 20.9715 13.301L10.9578 13.301C10.736 13.301 10.5563 13.4807 10.5563 13.7025L10.5563 14.121C10.5563 14.3427 10.736 14.5225 10.9578 14.5225Z" fill="#232325"/>
<path d="M21.1746 8.53027H5.32052C2.38208 8.53027 0 10.9124 0 13.8508V34.1259C0 37.0644 2.38208 39.4464 5.32052 39.4464H21.1746C24.1131 39.4464 26.4952 37.0644 26.4952 34.1259V13.8508C26.4952 10.9124 24.1131 8.53027 21.1746 8.53027Z" fill="#212121"/>
<path d="M21.1746 8.51464L5.32052 8.51465C2.38208 8.51465 4.16496e-07 10.8967 9.30269e-07 13.8352L4.47528e-06 34.1103C4.98906e-06 37.0487 2.38208 39.4308 5.32052 39.4308L21.1747 39.4308C24.1131 39.4308 26.4952 37.0487 26.4952 34.1103L26.4952 13.8352C26.4952 10.8967 24.1131 8.51464 21.1746 8.51464Z" fill="url(#paint1_linear_129_1124)"/>
<path d="M17.7718 34.3359L23.243 34.3359C23.4648 34.3359 23.6445 34.1562 23.6445 33.9344L23.6445 33.5159C23.6445 33.2942 23.4648 33.1144 23.243 33.1144L17.7718 33.1144C17.55 33.1144 17.3703 33.2942 17.3703 33.5159L17.3703 33.9344C17.3703 34.1562 17.55 34.3359 17.7718 34.3359Z" fill="#232325"/>
<path d="M17.7083 25.8613L23.1796 25.8613C23.4013 25.8613 23.5811 25.6816 23.5811 25.4598L23.5811 25.0413C23.5811 24.8196 23.4013 24.6398 23.1796 24.6398L17.7083 24.6398C17.4866 24.6398 17.3068 24.8196 17.3068 25.0413L17.3068 25.4598C17.3068 25.6816 17.4866 25.8613 17.7083 25.8613Z" fill="#232325"/>
<path d="M3.26367 25.8613L6.31725 25.8613C6.53899 25.8613 6.71875 25.6816 6.71875 25.4598L6.71875 25.0413C6.71875 24.8196 6.53899 24.6398 6.31725 24.6398L3.26367 24.6398C3.04193 24.6398 2.86217 24.8196 2.86217 25.0413L2.86217 25.4598C2.86217 25.6816 3.04193 25.8613 3.26367 25.8613Z" fill="#232325"/>
<path d="M3.2911 34.3359L10.6698 34.3359C10.8915 34.3359 11.0713 34.1562 11.0713 33.9344L11.0713 33.5159C11.0713 33.2942 10.8915 33.1144 10.6698 33.1144L3.2911 33.1144C3.06936 33.1144 2.8896 33.2942 2.8896 33.5159L2.8896 33.9344C2.8896 34.1562 3.06936 34.3359 3.2911 34.3359Z" fill="#232325"/>
<path d="M10.7862 31.5107L18.1649 31.5107C18.3866 31.5107 18.5664 31.331 18.5664 31.1092L18.5664 30.6907C18.5664 30.469 18.3866 30.2892 18.1649 30.2892L10.7862 30.2892C10.5645 30.2892 10.3847 30.469 10.3847 30.6907L10.3847 31.1092C10.3847 31.331 10.5645 31.5107 10.7862 31.5107Z" fill="#232325"/>
<path d="M20.1894 31.5107L23.243 31.5107C23.4648 31.5107 23.6445 31.331 23.6445 31.1092L23.6445 30.6907C23.6445 30.469 23.4648 30.2892 23.243 30.2892L20.1894 30.2892C19.9677 30.2892 19.7879 30.469 19.7879 30.6907L19.7879 31.1092C19.7879 31.331 19.9677 31.5107 20.1894 31.5107Z" fill="#232325"/>
<path d="M8.34407 31.5107L8.76256 31.5107C8.98431 31.5107 9.16406 31.331 9.16406 31.1092L9.16406 30.6907C9.16406 30.469 8.98431 30.2892 8.76256 30.2892L8.34407 30.2892C8.12232 30.2892 7.94257 30.469 7.94257 30.6907L7.94257 31.1092C7.94257 31.331 8.12232 31.5107 8.34407 31.5107Z" fill="#232325"/>
<path d="M3.29063 31.5107L6.3192 31.5107C6.54094 31.5107 6.7207 31.331 6.7207 31.1092L6.7207 30.6907C6.7207 30.469 6.54094 30.2892 6.3192 30.2892L3.29063 30.2892C3.06889 30.2892 2.88913 30.469 2.88913 30.6907L2.88913 31.1092C2.88913 31.331 3.06889 31.5107 3.29063 31.5107Z" fill="#232325"/>
<path d="M8.73114 27.4648L3.2599 27.4648C3.03815 27.4648 2.8584 27.6446 2.8584 27.8663L2.8584 28.2848C2.8584 28.5066 3.03815 28.6863 3.2599 28.6863L8.73114 28.6863C8.95288 28.6863 9.13264 28.5066 9.13264 28.2848L9.13264 27.8663C9.13264 27.6446 8.95288 27.4648 8.73114 27.4648Z" fill="#232325"/>
<path d="M13.8086 27.4648L10.755 27.4648C10.5333 27.4648 10.3535 27.6446 10.3535 27.8663L10.3535 28.2848C10.3535 28.5066 10.5333 28.6863 10.755 28.6863L13.8086 28.6863C14.0303 28.6863 14.2101 28.5066 14.2101 28.2848L14.2101 27.8663C14.2101 27.6446 14.0303 27.4648 13.8086 27.4648Z" fill="#232325"/>
<path d="M23.2118 27.4648L15.8331 27.4648C15.6114 27.4648 15.4316 27.6446 15.4316 27.8663L15.4316 28.2848C15.4316 28.5066 15.6114 28.6863 15.8331 28.6863L23.2118 28.6863C23.4336 28.6863 23.6133 28.5066 23.6133 28.2848L23.6133 27.8663C23.6133 27.6446 23.4336 27.4648 23.2118 27.4648Z" fill="#232325"/>
<path d="M8.32919 25.8613L15.7079 25.8613C15.9296 25.8613 16.1094 25.6816 16.1094 25.4598L16.1094 25.0413C16.1094 24.8196 15.9296 24.6398 15.7079 24.6398L8.32919 24.6398C8.10744 24.6398 7.92769 24.8196 7.92769 25.0413L7.92769 25.4598C7.92769 25.6816 8.10744 25.8613 8.32919 25.8613Z" fill="#232325"/>
<path d="M12.6689 34.3359L15.7225 34.3359C15.9443 34.3359 16.124 34.1562 16.124 33.9344L16.124 33.5159C16.124 33.2942 15.9443 33.1144 15.7225 33.1144L12.6689 33.1144C12.4472 33.1144 12.2674 33.2942 12.2674 33.5159L12.2674 33.9344C12.2674 34.1562 12.4472 34.3359 12.6689 34.3359Z" fill="#232325"/>
<path d="M22.7454 23.0361L23.1639 23.0361C23.3857 23.0361 23.5654 22.8564 23.5654 22.6346L23.5654 22.2161C23.5654 21.9944 23.3857 21.8146 23.1639 21.8146L22.7454 21.8146C22.5237 21.8146 22.3439 21.9944 22.3439 22.2161L22.3439 22.6346C22.3439 22.8564 22.5237 23.0361 22.7454 23.0361Z" fill="#232325"/>
<path d="M17.693 23.0361L20.7215 23.0361C20.9433 23.0361 21.123 22.8564 21.123 22.6346L21.123 22.2161C21.123 21.9944 20.9433 21.8146 20.7215 21.8146L17.693 21.8146C17.4712 21.8146 17.2915 21.9944 17.2915 22.2161L17.2915 22.6346C17.2915 22.8564 17.4712 23.0361 17.693 23.0361Z" fill="#232325"/>
<path d="M15.3138 23.0361L15.7323 23.0361C15.954 23.0361 16.1338 22.8564 16.1338 22.6346L16.1338 22.2161C16.1338 21.9944 15.954 21.8146 15.7323 21.8146L15.3138 21.8146C15.092 21.8146 14.9123 21.9944 14.9123 22.2161L14.9123 22.6346C14.9123 22.8564 15.092 23.0361 15.3138 23.0361Z" fill="#232325"/>
<path d="M3.27613 23.0361L13.2899 23.0361C13.5116 23.0361 13.6914 22.8564 13.6914 22.6346L13.6914 22.2161C13.6914 21.9944 13.5116 21.8146 13.2899 21.8146L3.27613 21.8146C3.05439 21.8146 2.87463 21.9944 2.87463 22.2161L2.87463 22.6346C2.87463 22.8564 3.05439 23.0361 3.27613 23.0361Z" fill="#232325"/>
<defs>
<linearGradient id="paint0_linear_129_1124" x1="21.5718" y1="30.9162" x2="21.5718" y2="0" gradientUnits="userSpaceOnUse">
<stop stop-color="#F8604A"/>
<stop offset="1" stop-opacity="0"/>
</linearGradient>
<linearGradient id="paint1_linear_129_1124" x1="13.2476" y1="39.4308" x2="13.2476" y2="8.51465" gradientUnits="userSpaceOnUse">
<stop stop-color="#F8604A"/>
<stop offset="1" stop-opacity="0"/>
</linearGradient>
</defs>
</svg>
